<svg width="80" height="74" viewBox="0 0 80 74" fill="none" xmlns="http://www.w3.org/2000/svg">
<path d="M13.7277 54.1461C13.7996 54.4368 13.9021 54.7167 14.0061 54.9997C14.1132 55.2827 14.231 55.5627 14.3595 55.838C14.4956 56.1072 14.6501 56.3673 14.8077 56.6243C14.9683 56.8797 15.1351 57.1306 15.3125 57.3693C15.4991 57.6002 15.6934 57.8236 15.8938 58.0362C17.2048 57.3861 17.8595 55.734 17.858 53.6367C17.8564 51.5227 17.2614 49.4315 16.316 47.7198C15.6108 47.8819 14.9622 48.2766 14.462 48.916C13.9663 49.5508 13.5778 50.4534 13.4952 51.5594C13.4707 51.8378 13.4615 52.1223 13.4677 52.4114C13.4753 52.699 13.512 52.9835 13.5549 53.2742C13.5992 53.5633 13.6573 53.854 13.7277 54.1461Z" fill="white"/>
<path d="M10.4495 48.3133C10.5137 48.5963 10.5994 48.8732 10.6866 49.1485C10.7784 49.4239 10.8778 49.6931 10.9864 49.9577C11.1042 50.2178 11.2373 50.4687 11.3735 50.7119C12.7426 50.4121 13.7384 49.0246 14.208 47.0605C14.6853 45.0779 14.5951 42.9776 14.0872 41.1572C13.3927 41.1527 12.7043 41.3806 12.0909 41.8686C11.7865 42.1118 11.4989 42.4223 11.2388 42.8002C10.9773 43.178 10.7799 43.617 10.6055 44.128C10.5199 44.3819 10.4434 44.6465 10.3868 44.9173C10.3378 45.185 10.3011 45.4604 10.2782 45.7403C10.2537 46.0202 10.2415 46.3063 10.2415 46.5939C10.2476 46.8799 10.2766 47.1645 10.3103 47.4521C10.3455 47.7396 10.3929 48.0272 10.4495 48.3133Z" fill="white"/>
<path d="M8.55735 41.7263C8.60171 41.9971 8.67361 42.2586 8.74398 42.5172C10.0825 42.5524 11.3307 41.4923 12.2103 39.7637C13.1068 38.0244 13.4938 36.0342 13.4265 34.2184C12.7809 34.0608 12.088 34.119 11.4057 34.4402C11.0661 34.5993 10.7234 34.8242 10.4022 35.1194C10.0917 35.4147 9.7949 35.7803 9.51802 36.2162C9.23196 36.6522 9.02698 37.1325 8.85412 37.645C8.76845 37.8989 8.69044 38.162 8.62619 38.4313C8.57265 38.6974 8.53135 38.9697 8.49769 39.2451C8.4671 39.5204 8.44415 39.7973 8.43191 40.0757C8.42732 40.3541 8.44415 40.631 8.46404 40.9064C8.48545 41.1832 8.51758 41.4571 8.55735 41.7263Z" fill="white"/>
<path d="M8.43326 31.598C8.37055 31.8565 8.31853 32.115 8.27417 32.3766C8.23134 32.6367 8.19769 32.8983 8.17321 33.1583C8.15027 33.4184 8.15791 33.6769 8.16403 33.9323C9.39546 34.275 10.7967 33.5805 12.0113 32.1732C13.2427 30.7582 14.055 28.9852 14.3946 27.2658C13.8332 26.9752 13.1739 26.8773 12.4641 27.0241C11.7497 27.1679 11.0353 27.5733 10.3118 28.2586C9.62951 28.9516 9.04209 29.848 8.68567 30.8423C8.59389 31.0901 8.50516 31.3425 8.43326 31.598Z" fill="white"/>
<path d="M11.5203 25.7024C12.1842 25.5632 12.9277 25.2359 13.6512 24.7158C15.1213 23.6771 16.2548 22.1734 16.9722 20.6513C16.5133 20.2566 15.9229 20.0256 15.2375 20.0119C14.5553 19.9981 13.7506 20.1908 12.9674 20.6911C11.3276 21.6441 10.1038 23.5623 9.68311 25.4653C10.2109 25.7651 10.8457 25.837 11.5203 25.7024Z" fill="white"/>
<path d="M18.7209 16.8943C18.8953 16.7734 19.0773 16.6556 19.2471 16.5256C19.5882 16.2702 19.8988 15.9856 20.1894 15.6873C20.4954 15.4028 20.7707 15.0953 21.0124 14.7726C20.6743 14.306 20.1802 13.9633 19.5485 13.8012C19.2333 13.7201 18.8846 13.6834 18.5037 13.6987C18.314 13.7063 18.1166 13.7277 17.9117 13.7629C17.7113 13.8012 17.5093 13.8578 17.2982 13.9266C15.5804 14.4544 14.0246 15.9474 13.1848 17.5995C14.017 18.3873 15.4779 18.4546 17.0229 17.7999C17.4298 17.6469 17.8184 17.4603 18.1855 17.2415C18.3691 17.1329 18.548 17.0167 18.7209 16.8943Z" fill="white"/>
<path d="M21.8277 8.60929C21.615 8.67354 21.4024 8.74697 21.1913 8.8311C20.9817 8.91677 20.7844 9.02385 20.5855 9.13093C20.1878 9.35121 19.8023 9.60361 19.4398 9.88049C19.0956 10.1742 18.7759 10.4924 18.4883 10.8243C18.782 11.2848 19.2593 11.6106 19.8574 11.7896C20.1557 11.8783 20.4861 11.9303 20.8379 11.9426C21.0154 11.9502 21.1928 11.9441 21.384 11.9334C21.5768 11.9273 21.7757 11.9104 21.9776 11.8829C22.383 11.8309 22.7807 11.7391 23.1662 11.6152C23.5517 11.4913 23.9509 11.3659 24.3165 11.1961C25.0432 10.8427 25.7621 10.4603 26.3449 9.95086C25.9273 8.93971 24.8137 8.25746 23.0973 8.35536C22.6797 8.39513 22.2545 8.48233 21.8277 8.60929Z" fill="white"/>
<path d="M8.41969 54.2043C7.36265 53.5143 6.41881 53.0585 5.54227 52.9086C4.67339 52.7556 3.91465 52.8933 3.34253 53.3553C3.59952 54.0253 3.89935 54.7045 4.26036 55.3546C4.64279 55.9956 5.05123 56.6258 5.52239 57.1995C6.00425 57.7639 6.49835 58.3024 7.04599 58.7582C7.59669 59.211 8.15657 59.6118 8.73481 59.927C9.91729 60.5404 10.9483 60.7897 11.8279 60.7086C12.6968 60.6367 13.3683 60.2727 13.8166 59.696C12.4 57.6354 10.4955 55.6131 8.41969 54.2043Z" fill="white"/>
<path d="M4.17767 50.8817C6.07606 52.5659 7.87349 52.6883 8.95806 51.824C8.11671 49.5799 6.79962 47.2624 5.17658 45.4909C4.77426 45.0489 4.34747 44.6771 3.95739 44.3666C3.56425 44.0561 3.16958 43.8174 2.78256 43.6507C2.00852 43.3172 1.26814 43.2805 0.633301 43.5849C0.725084 44.2626 0.836754 44.9632 1.0448 45.6424C1.25896 46.3216 1.48689 46.9993 1.8066 47.6326C2.12784 48.2643 2.46132 48.8747 2.87129 49.4193C3.28125 49.9623 3.71111 50.4595 4.17767 50.8817Z" fill="white"/>
<mask id="mask0_788_2720" style="mask-type:luminance" maskUnits="userSpaceOnUse" x="0" y="33" width="7" height="11">
<path d="M0 33.2746H6.18315V43.4564H0V33.2746Z" fill="white"/>
</mask>
<g mask="url(#mask0_788_2720)">
<path d="M1.02331 39.4042C1.2803 39.9992 1.56636 40.5576 1.90443 41.0547C3.2873 43.0434 4.92257 43.5696 6.13259 43.0174C5.86642 40.7381 5.1658 38.2829 4.04757 36.2728C3.77069 35.7726 3.4724 35.3336 3.16033 34.9573C2.86051 34.5825 2.5515 34.272 2.22873 34.0318C1.58625 33.5515 0.905519 33.3541 0.246207 33.4964C0.172781 34.1465 0.123829 34.8196 0.172781 35.4957C0.215613 36.1719 0.272213 36.8511 0.435893 37.5088C0.50932 37.8393 0.594985 38.162 0.689827 38.4802C0.781611 38.7969 0.890221 39.1059 1.02331 39.4042Z" fill="white"/>
</g>
<path d="M2.04077 30.9999C2.86529 33.1537 4.2604 34.0195 5.50866 33.787C5.7886 31.6118 5.69987 29.1734 5.10328 27.0578C4.82793 26.0099 4.39655 25.1594 3.91468 24.575C3.42823 23.9907 2.84082 23.6572 2.19527 23.6419C1.96276 24.2186 1.80978 24.8412 1.68588 25.473C1.62622 25.7881 1.57421 26.1063 1.5329 26.426C1.50537 26.7472 1.48854 27.07 1.48089 27.3912C1.46713 28.0322 1.49007 28.6624 1.59868 29.2728C1.7027 29.8832 1.83273 30.4614 2.04077 30.9999Z" fill="white"/>
<path d="M5.50709 23.7826C5.96754 24.3456 6.53506 24.6408 7.14236 24.6806C7.91335 22.7394 8.3432 20.4417 8.29272 18.372C8.22694 17.3211 8.06326 16.4675 7.72978 15.8158C7.39936 15.1642 6.92514 14.7282 6.33161 14.5737C4.99463 16.5195 4.31085 19.1613 4.57396 21.3137C4.71316 22.3967 5.03593 23.2166 5.50709 23.7826Z" fill="white"/>
<path d="M10.9054 16.2304C11.2052 15.8327 11.4821 15.4043 11.7315 14.9531C11.8584 14.7312 11.967 14.4926 12.091 14.2662C12.2133 14.0398 12.3281 13.8073 12.4367 13.5702C12.657 13.1021 12.8252 12.6019 12.995 12.1215C13.1648 11.6412 13.2979 11.1517 13.3882 10.6622C13.4341 10.4174 13.4662 10.1788 13.4891 9.95239C13.5197 9.72905 13.5365 9.51336 13.5411 9.30685C13.5518 8.89382 13.5151 8.51445 13.4341 8.17638C13.2704 7.50177 12.9262 6.9939 12.4122 6.72008C10.7479 8.21615 9.55314 10.5184 9.29309 12.5453C9.09117 14.6242 9.79331 15.8816 10.9054 16.2304Z" fill="white"/>
<path d="M16.6098 8.9443C16.9708 8.63988 17.3165 8.30335 17.6454 7.9408C17.9896 7.59814 18.3154 7.22642 18.6152 6.83481C18.7667 6.64053 18.9074 6.43402 19.0497 6.23516C19.195 6.03935 19.3327 5.83896 19.4612 5.63398C19.7212 5.22554 19.9492 4.80028 20.1388 4.36583C20.9374 2.69385 20.9251 1.25285 20.1037 0.521637C19.2072 1.06316 18.3062 1.72859 17.5995 2.5577C17.2431 2.96614 16.9035 3.3761 16.6327 3.82584C16.3635 4.27558 16.1371 4.73297 15.9642 5.1873C15.877 5.4137 15.8067 5.63245 15.7516 5.84355C15.6996 6.05618 15.6675 6.26728 15.646 6.46615C15.6047 6.86387 15.62 7.22489 15.6843 7.54307C15.8128 8.1825 16.1401 8.65518 16.6098 8.9443Z" fill="white"/>
<mask id="mask1_788_2720" style="mask-type:luminance" maskUnits="userSpaceOnUse" x="24" y="0" width="11" height="5">
<path d="M24.5889 0H34.3791V4.68708H24.5889V0Z" fill="white"/>
</mask>
<g mask="url(#mask1_788_2720)">
<path d="M25.9258 4.41938C26.3297 4.39796 26.7519 4.33983 27.1863 4.24346C27.6253 4.15473 28.0888 4.0553 28.5508 3.90386C28.7833 3.83043 29.0159 3.7463 29.2514 3.65604C29.4916 3.57497 29.7318 3.48624 29.9735 3.38681C30.2136 3.28738 30.4477 3.18183 30.6741 3.06863C30.7873 3.01203 30.8989 2.9539 31.0091 2.8973C31.1208 2.84529 31.2309 2.79022 31.3395 2.73515C31.7724 2.51334 32.1747 2.26858 32.5419 2.00853C33.2853 1.5129 33.9003 0.977496 34.324 0.403849C33.6861 0.146855 32.8463 0.00306133 31.9024 0.0397747C31.4328 0.0718992 30.9372 0.140737 30.4232 0.250877C30.2962 0.279942 30.1662 0.310536 30.0377 0.339601C29.9092 0.376314 29.7807 0.419146 29.6522 0.461979C29.3937 0.549173 29.1352 0.647075 28.8736 0.754156C28.6135 0.861237 28.3611 0.975966 28.1164 1.09528C27.8777 1.22531 27.6483 1.36452 27.428 1.50678C26.989 1.79284 26.5836 2.08196 26.2363 2.40473C25.8952 2.73362 25.5985 3.0671 25.3552 3.39752C25.112 3.72794 24.9193 4.05377 24.7969 4.39031C25.1395 4.42244 25.5235 4.44079 25.9258 4.41938Z" fill="white"/>
</g>
<path d="M43.8006 59.4726C44.6465 60.9488 46.3583 61.9936 48.041 62.1894C48.5259 61.0559 48.1909 59.6195 47.2883 58.3009C46.3781 56.9654 45.1406 56.02 43.8342 55.5428C43.4793 56.0415 43.259 56.6472 43.2315 57.3218C43.2193 57.6584 43.2514 58.0163 43.3432 58.3804C43.438 58.7353 43.5895 59.1024 43.8006 59.4726Z" fill="white"/>
<path d="M41.6483 59.9178C42.3596 58.9785 42.381 57.5712 41.8425 56.1363C41.2995 54.6861 40.3526 53.522 39.2313 52.7801C38.3502 53.5449 37.8683 54.859 38.3288 56.4331C38.7892 57.9888 40.1354 59.3472 41.6483 59.9178Z" fill="white"/>
<path d="M33.7121 52.1728C33.7733 53.7423 34.7386 55.2781 35.9991 56.1638C36.8787 55.454 37.2137 54.1721 37.0423 52.7036C36.8649 51.2289 36.2102 49.9302 35.3382 48.9787C34.8441 49.2388 34.4204 49.6426 34.1251 50.1826C33.8314 50.7195 33.6525 51.4079 33.7121 52.1728Z" fill="white"/>
<path d="M33.149 48.1986C33.3341 46.7805 32.9961 45.4451 32.401 44.3605C31.8855 44.492 31.4051 44.772 31.0151 45.2064C30.8193 45.4236 30.6464 45.6791 30.5041 45.9728C30.3573 46.2696 30.2471 46.6 30.1921 46.9595C29.9106 48.4204 30.4582 50.0495 31.4067 51.1632C32.3658 50.7165 33.0144 49.5753 33.149 48.1986Z" fill="white"/>
<path d="M30.7108 41.916C30.7643 41.5978 30.8194 41.272 30.8255 40.9568C30.827 40.3281 30.7888 39.7025 30.596 39.138C29.5864 39.1518 28.5783 39.7606 27.9848 41.0563C27.4433 42.3305 27.5044 43.975 28.1683 45.2003C28.664 45.1055 29.1214 44.8332 29.5099 44.4309C29.9061 44.0255 30.1968 43.5038 30.4492 42.869C30.5685 42.5523 30.6557 42.2342 30.7108 41.916Z" fill="white"/>
<path d="M26.2363 55.7952C27.2414 57.432 29.0296 58.7674 30.7964 59.1774C31.6852 59.3793 32.444 59.3518 33.0604 59.1284C33.6723 58.9128 34.1205 58.5273 34.3928 58.0362C33.2302 56.84 31.6485 55.8411 30.0117 55.298C29.1688 55.0517 28.43 54.9446 27.7814 55.0257C27.1343 55.1053 26.5973 55.3623 26.2363 55.7952Z" fill="white"/>
<path d="M25.9686 49.0827C25.606 48.8762 25.2603 48.7064 24.933 48.5779C24.601 48.4525 24.2767 48.3714 23.9692 48.3393C23.3528 48.2705 22.799 48.3898 22.3691 48.711C22.9305 50.4427 24.3058 52.0581 25.8217 52.8413C27.3973 53.6 28.6731 53.3874 29.3998 52.598C28.6119 51.2182 27.3713 49.9424 25.9686 49.0827Z" fill="white"/>
<path d="M20.2612 40.9721C20.4387 42.6686 21.2693 44.4676 22.5268 45.517C23.1279 46.0539 23.7888 46.3292 24.3563 46.4164C24.9315 46.5021 25.4501 46.3843 25.8738 46.1074C25.4179 44.6725 24.6393 43.1918 23.4951 42.1026C22.409 41.0073 21.1944 40.5744 20.2612 40.9721Z" fill="white"/>
<path d="M26.3327 35.7497C26.3587 35.5584 26.3725 35.3642 26.3832 35.1668C26.4046 34.968 26.4153 34.766 26.4184 34.5595C26.4153 33.7381 26.3556 32.9671 26.1736 32.2665C26.013 31.5689 25.7697 30.9479 25.4286 30.4507C24.9835 30.824 24.5659 31.3854 24.2599 32.0844C23.9784 32.7866 23.7704 33.6249 23.7719 34.5244C23.7689 34.7492 23.7735 34.9695 23.7842 35.1867C23.8056 35.4039 23.8392 35.615 23.8775 35.8216C23.9555 36.2331 24.0519 36.6216 24.1941 36.9765C24.497 37.6817 24.8611 38.2584 25.3246 38.6393C25.6504 38.1559 25.9487 37.5364 26.1109 36.8449C26.2011 36.4992 26.2883 36.1321 26.3327 35.7497Z" fill="white"/>
<mask id="mask2_788_2720" style="mask-type:luminance" maskUnits="userSpaceOnUse" x="6" y="5" width="74" height="69">
<path d="M6.27808 5.30815H80.0001V73.8505H6.27808V5.30815Z" fill="white"/>
</mask>
<g mask="url(#mask2_788_2720)">
<path d="M74.1887 56.9838C77.8662 51.2595 80.0001 44.4461 80.0001 37.1371C80.0001 25.6764 74.7562 15.441 66.537 8.69954C72.7447 15.08 76.5705 23.7903 76.5705 33.3954C76.5705 35.7604 76.3364 38.0703 75.8943 40.3067C74.4212 49.1072 69.6454 56.788 62.8856 62.0334C62.2982 62.2307 61.697 62.4173 61.0667 62.578C59.4942 62.9833 57.7977 63.2771 56.0263 63.4101C52.4865 63.684 48.6423 63.2755 45.023 62.0946C41.3991 60.9335 38.0306 58.9999 35.3138 56.6702C33.9493 55.5122 32.75 54.2532 31.693 52.9958C30.6635 51.7139 29.7716 50.435 29.0511 49.1914C27.5933 46.7086 26.7917 44.4263 26.3083 42.82C26.0881 42.0108 25.9076 41.3745 25.8265 40.9308C25.7332 40.4903 25.6827 40.2547 25.6827 40.2547L25.3676 40.3144C25.3676 40.3144 25.4135 40.553 25.4991 40.9997C25.5725 41.4509 25.7408 42.0965 25.9473 42.9225C26.4047 44.5578 27.1711 46.8891 28.6014 49.4468C29.3097 50.7272 30.1923 52.0489 31.2157 53.3797C32.2697 54.6846 33.469 55.9971 34.8442 57.2132C37.5793 59.6562 41.0013 61.7183 44.7216 62.9956C48.4358 64.2897 52.4116 64.7976 56.1028 64.5865C57.3908 64.5177 58.6391 64.3601 59.8399 64.1413C54.5287 67.4241 48.2752 69.3256 41.5735 69.3256C33.1829 69.3256 25.4869 66.3564 19.4766 61.4108C16.8271 59.3579 14.4805 56.9363 12.5056 54.2272C12.1431 53.623 11.7897 53.0095 11.4547 52.3701C9.36358 48.399 7.9134 43.7348 7.46825 38.9468C7.00169 34.1603 7.55698 29.2866 8.89855 24.9712C9.55786 22.8097 10.416 20.7905 11.3461 18.9349C11.8509 18.0293 12.3083 17.1268 12.8498 16.3115C12.9783 16.1049 13.1083 15.9 13.2353 15.6965C13.3592 15.4915 13.4892 15.2911 13.63 15.1014C13.9023 14.7175 14.17 14.3396 14.4331 13.971C16.5793 11.04 18.8219 8.96878 20.4388 7.60579C21.2679 6.94495 21.9134 6.41873 22.3892 6.1036C22.8512 5.77471 23.099 5.59879 23.099 5.59879L22.9062 5.31273C22.9062 5.31273 22.6538 5.48559 22.1796 5.8099C21.6947 6.1189 21.0338 6.63901 20.1849 7.29373C18.5266 8.64294 16.2183 10.6989 13.9864 13.636C13.7141 14.0062 13.4357 14.3855 13.1512 14.771C13.0059 14.9607 12.8712 15.1611 12.7397 15.3676C12.6081 15.5726 12.4735 15.7791 12.3374 15.9872C11.7729 16.8056 11.2926 17.7142 10.7617 18.6275C9.78273 20.4998 8.87254 22.542 8.16122 24.7387C7.44225 26.9323 6.9099 29.2697 6.61314 31.6806C6.31637 34.0899 6.25824 36.5711 6.44946 39.034C6.529 40.0803 6.6575 41.1221 6.82577 42.1561C6.812 42.0995 6.79517 42.0445 6.78141 41.9894C9.15554 60.0019 24.569 73.9056 43.2317 73.9056C56.0538 73.9056 67.3417 67.34 73.9225 57.3891C74.1535 57.1933 74.2805 57.0847 74.2805 57.0847L74.1887 56.9838Z" fill="white"/>
</g>
<path d="M55.7065 51.3177H39.1992V50.0862C40.9691 50.0862 42.1791 49.892 42.8323 49.5019C43.432 49.2066 43.7333 48.6911 43.7333 47.9538C43.7333 46.9212 43.3218 45.4527 42.5004 43.5467L39.8463 37.339H22.8969L19.9277 44.9051C19.5805 45.8214 19.4061 46.6642 19.4061 47.4322C19.4061 49.2021 20.8701 50.0862 23.798 50.0862V51.3177H10.988V50.0862C12.5453 50.0021 13.7568 49.3917 14.6211 48.2536C15.4839 47.1063 16.9478 44.1784 19.0114 39.4715L32.47 7.70522H33.7656L49.8767 44.463C51.0041 46.8738 51.8883 48.3959 52.5308 49.0277C53.184 49.6487 54.2425 50.0021 55.7065 50.0862V51.3177ZM38.9468 34.685L31.4435 16.8989L24.0029 34.685H38.9468Z" stroke="#4B8B3B" stroke-width="9.63804"/>
<path d="M55.7015 51.3183H39.2049V50.0884C40.9702 50.0884 42.1787 49.8956 42.8273 49.5071C43.43 49.2057 43.7329 48.6872 43.7329 47.9529C43.7329 46.9173 43.323 45.4503 42.503 43.5534L39.8535 37.3427H22.8981L19.9243 44.9118C19.5771 45.8174 19.4042 46.6603 19.4042 47.4389C19.4042 49.2057 20.8697 50.0884 23.8037 50.0884V51.3183H10.9968V50.0884C12.5464 50.0027 13.7519 49.3893 14.6131 48.2466C15.4774 47.1054 16.9459 44.1821 19.0187 39.4782L32.4742 7.70891H33.7714L49.8824 44.459C51.0037 46.8744 51.8864 48.3965 52.5319 49.0237C53.1805 49.6478 54.236 50.0027 55.7015 50.0884V51.3183ZM38.948 34.6871L31.4401 16.8995L23.9995 34.6871H38.948Z" fill="white"/>
<path d="M68.7459 42.69C68.7459 45.9239 67.5145 48.6452 65.0516 50.8511C62.598 53.0585 59.5431 54.163 55.8886 54.163C53.3645 54.163 50.8803 53.6796 48.4358 52.7143C47.1738 52.2523 46.1886 52.0213 45.4803 52.0213C45.0184 52.0213 44.6176 52.2217 44.2795 52.6225C43.9399 53.0233 43.7502 53.5159 43.7089 54.1002H42.323L40.4292 40.735H41.8763C43.4779 44.6052 45.2953 47.4337 47.3283 49.2189C49.3704 51.0056 51.8042 51.899 54.6266 51.899C56.9365 51.899 58.8043 51.2473 60.2315 49.9424C61.6587 48.6391 62.3716 46.935 62.3716 44.8316C62.3716 43.2805 62.0794 42.0384 61.4935 41.1052C59.9439 38.754 56.8125 36.2958 52.101 33.7289C48.5704 31.881 46.0448 30.0132 44.5258 28.124C43.016 26.2256 42.2618 24.0182 42.2618 21.5033C42.2618 18.0538 43.4779 15.3187 45.9117 13.2964C48.0977 11.5295 50.4749 10.6469 53.0402 10.6469C55.1451 10.6469 57.4183 11.1089 59.8613 12.0328C60.9918 12.5361 61.9142 12.787 62.6332 12.787C63.7223 12.787 64.3939 12.0741 64.6509 10.6469H65.9756L67.36 24.0901H65.7905C64.9476 20.9282 63.6657 18.4638 61.9402 16.6985C59.7129 14.3886 57.146 13.2336 54.2411 13.2336C52.2708 13.2336 50.6845 13.7736 49.4836 14.8506C48.2828 15.9183 47.6816 17.315 47.6816 19.039C47.6816 20.763 48.396 22.386 49.8217 23.905C51.2596 25.4133 53.6353 27.0715 56.9518 28.8781C61.1187 31.1467 64.1277 33.3648 65.9756 35.5309C67.822 37.697 68.7459 40.0834 68.7459 42.69Z" stroke="#4B8B3B" stroke-width="9.39496"/>
<path d="M68.7487 42.6866C68.7487 45.9265 67.5188 48.6495 65.059 50.8553C62.5992 53.0627 59.5397 54.1656 55.8806 54.1656C53.3596 54.1656 50.8784 53.6823 48.4401 52.7155C47.1796 52.255 46.1914 52.024 45.4785 52.024C45.0135 52.024 44.6112 52.2244 44.2731 52.6237C43.9381 53.0245 43.7499 53.517 43.7101 54.1045H42.3212L40.4304 40.7347H41.8806C43.4792 44.6018 45.298 47.4287 47.3387 49.2155C49.3778 51.0022 51.8055 51.8955 54.6201 51.8955C56.9331 51.8955 58.8024 51.2454 60.2312 49.9436C61.663 48.6388 62.3789 46.9362 62.3789 44.8343C62.3789 43.2771 62.0852 42.0365 61.4978 41.114C59.939 38.7567 56.8061 36.2969 52.0992 33.7346C48.5655 31.8837 46.043 30.0113 44.5301 28.1175C43.0157 26.2252 42.26 24.0178 42.26 21.4968C42.26 18.0504 43.4792 15.3168 45.9191 13.2975C48.105 11.5322 50.4807 10.648 53.0476 10.648C55.1479 10.648 57.418 11.1115 59.8579 12.037C60.9914 12.5388 61.9154 12.7897 62.6298 12.7897C63.722 12.7897 64.3951 12.0768 64.649 10.648H65.9768L67.3597 24.079H65.7871C64.9458 20.9263 63.6639 18.4665 61.9383 16.6996C59.7111 14.3867 57.1442 13.2302 54.2408 13.2302C52.2659 13.2302 50.6796 13.7672 49.4803 14.8395C48.281 15.9134 47.6813 17.3115 47.6813 19.0371C47.6813 20.7595 48.3942 22.378 49.8229 23.8955C51.2547 25.4099 53.6319 27.0696 56.9576 28.8762C61.1184 31.1448 64.1228 33.3614 65.9707 35.5275C67.8217 37.6936 68.7487 40.0799 68.7487 42.6866Z" fill="white"/>
</svg>
